REM DIRINDEX 1\2,1\3,1\4,1\5\6,1\5\7,1\8
REM DIRNAME cjc115,folder01,folder02,folder03,folder04,folder05,folder06,folder07
TITLE ""
FILE "140 Åy140ÅzUnit8 (1585 absurd_1596 intangible).mp3" MP3
  TRACK 01 AUDIO
    TITLE "0:"
    INDEX 01 00:00:00
  TRACK 02 AUDIO
    TITLE "2:cjc115_5468"
    INDEX 01 00:00:07
  TRACK 03 AUDIO
    TITLE "0:"
    INDEX 01 00:01:30
  TRACK 04 AUDIO
    TITLE "3:cjc115_5469"
    INDEX 01 00:01:40
  TRACK 05 AUDIO
    TITLE "0:"
    INDEX 01 00:02:59
  TRACK 06 AUDIO
    TITLE "4:cjc115_5470"
    INDEX 01 00:02:73
  TRACK 07 AUDIO
    TITLE "0:"
    INDEX 01 00:05:50
  TRACK 08 AUDIO
    TITLE "2:cjc115_5471"
    INDEX 01 00:06:61
  TRACK 09 AUDIO
    TITLE "0:"
    INDEX 01 00:08:03
  TRACK 10 AUDIO
    TITLE "3:cjc115_5472"
    INDEX 01 00:08:09
  TRACK 11 AUDIO
    TITLE "0:"
    INDEX 01 00:09:34
  TRACK 12 AUDIO
    TITLE "4:cjc115_5473"
    INDEX 01 00:09:42
  TRACK 13 AUDIO
    TITLE "0:"
    INDEX 01 00:12:48
  TRACK 14 AUDIO
    TITLE "2:cjc115_5474"
    INDEX 01 00:13:55
  TRACK 15 AUDIO
    TITLE "0:"
    INDEX 01 00:15:21
  TRACK 16 AUDIO
    TITLE "3:cjc115_5475"
    INDEX 01 00:15:32
  TRACK 17 AUDIO
    TITLE "0:"
    INDEX 01 00:17:00
  TRACK 18 AUDIO
    TITLE "4:cjc115_5476"
    INDEX 01 00:17:08
  TRACK 19 AUDIO
    TITLE "0:"
    INDEX 01 00:20:51
  TRACK 20 AUDIO
    TITLE "2:cjc115_5477"
    INDEX 01 00:21:60
  TRACK 21 AUDIO
    TITLE "0:"
    INDEX 01 00:22:74
  TRACK 22 AUDIO
    TITLE "3:cjc115_5478"
    INDEX 01 00:23:08
  TRACK 23 AUDIO
    TITLE "0:"
    INDEX 01 00:25:05
  TRACK 24 AUDIO
    TITLE "4:cjc115_5479"
    INDEX 01 00:25:11
  TRACK 25 AUDIO
    TITLE "0:"
    INDEX 01 00:29:48
  TRACK 26 AUDIO
    TITLE "2:cjc115_5480"
    INDEX 01 00:30:57
  TRACK 27 AUDIO
    TITLE "0:"
    INDEX 01 00:32:03
  TRACK 28 AUDIO
    TITLE "3:cjc115_5481"
    INDEX 01 00:32:09
  TRACK 29 AUDIO
    TITLE "0:"
    INDEX 01 00:34:20
  TRACK 30 AUDIO
    TITLE "4:cjc115_5482"
    INDEX 01 00:34:28
  TRACK 31 AUDIO
    TITLE "0:"
    INDEX 01 00:39:09
  TRACK 32 AUDIO
    TITLE "2:cjc115_5483"
    INDEX 01 00:40:19
  TRACK 33 AUDIO
    TITLE "0:"
    INDEX 01 00:41:28
  TRACK 34 AUDIO
    TITLE "3:cjc115_5484"
    INDEX 01 00:41:36
  TRACK 35 AUDIO
    TITLE "0:"
    INDEX 01 00:43:07
  TRACK 36 AUDIO
    TITLE "4:cjc115_5485"
    INDEX 01 00:43:15
  TRACK 37 AUDIO
    TITLE "0:"
    INDEX 01 00:46:23
  TRACK 38 AUDIO
    TITLE "2:cjc115_5486"
    INDEX 01 00:47:30
  TRACK 39 AUDIO
    TITLE "0:"
    INDEX 01 00:48:63
  TRACK 40 AUDIO
    TITLE "3:cjc115_5487"
    INDEX 01 00:48:69
  TRACK 41 AUDIO
    TITLE "0:"
    INDEX 01 00:50:37
  TRACK 42 AUDIO
    TITLE "4:cjc115_5488"
    INDEX 01 00:50:48
  TRACK 43 AUDIO
    TITLE "0:"
    INDEX 01 00:54:38
  TRACK 44 AUDIO
    TITLE "2:cjc115_5489"
    INDEX 01 00:55:48
  TRACK 45 AUDIO
    TITLE "0:"
    INDEX 01 00:56:69
  TRACK 46 AUDIO
    TITLE "3:cjc115_5490"
    INDEX 01 00:56:74
  TRACK 47 AUDIO
    TITLE "0:"
    INDEX 01 00:58:52
  TRACK 48 AUDIO
    TITLE "4:cjc115_5491"
    INDEX 01 00:58:60
  TRACK 49 AUDIO
    TITLE "0:"
    INDEX 01 01:01:50
  TRACK 50 AUDIO
    TITLE "2:cjc115_5492"
    INDEX 01 01:02:57
  TRACK 51 AUDIO
    TITLE "0:"
    INDEX 01 01:04:01
  TRACK 52 AUDIO
    TITLE "3:cjc115_5493"
    INDEX 01 01:04:09
  TRACK 53 AUDIO
    TITLE "0:"
    INDEX 01 01:06:14
  TRACK 54 AUDIO
    TITLE "4:cjc115_5494"
    INDEX 01 01:06:18
  TRACK 55 AUDIO
    TITLE "0:"
    INDEX 01 01:10:08
  TRACK 56 AUDIO
    TITLE "2:cjc115_5495"
    INDEX 01 01:11:15
  TRACK 57 AUDIO
    TITLE "0:"
    INDEX 01 01:12:60
  TRACK 58 AUDIO
    TITLE "3:cjc115_5496"
    INDEX 01 01:12:71
  TRACK 59 AUDIO
    TITLE "0:"
    INDEX 01 01:14:74
  TRACK 60 AUDIO
    TITLE "4:cjc115_5497"
    INDEX 01 01:15:07
  TRACK 61 AUDIO
    TITLE "0:"
    INDEX 01 01:19:44
  TRACK 62 AUDIO
    TITLE "2:cjc115_5498"
    INDEX 01 01:20:53
  TRACK 63 AUDIO
    TITLE "0:"
    INDEX 01 01:22:01
  TRACK 64 AUDIO
    TITLE "3:cjc115_5499"
    INDEX 01 01:22:11
  TRACK 65 AUDIO
    TITLE "0:"
    INDEX 01 01:24:24
  TRACK 66 AUDIO
    TITLE "4:cjc115_5500"
    INDEX 01 01:24:36
  TRACK 67 AUDIO
    TITLE "0:"
    INDEX 01 01:29:27
  TRACK 68 AUDIO
    TITLE "2:cjc115_5501"
    INDEX 01 01:30:36
  TRACK 69 AUDIO
    TITLE "0:"
    INDEX 01 01:31:71
  TRACK 70 AUDIO
    TITLE "3:cjc115_5502"
    INDEX 01 01:32:06
  TRACK 71 AUDIO
    TITLE "0:"
    INDEX 01 01:35:02
  TRACK 72 AUDIO
    TITLE "4:cjc115_5503"
    INDEX 01 01:35:10
  TRACK 73 AUDIO
    TITLE "0:"
    INDEX 01 01:40:25
